<mxfile host="app.diagrams.net" agent="Mozilla/5.0 (X11; Linux x86_64; rv:142.0) Gecko/20100101 Firefox/142.0" version="28.1.1">
  <diagram name="Page-1" id="Kdo93F4gMryrVp4xqgqh">
    <mxGraphModel dx="2480" dy="2010" grid="1" gridSize="10" guides="1" tooltips="1" connect="1" arrows="1" fold="1" page="1" pageScale="1" pageWidth="850" pageHeight="1100" math="0" shadow="0">
      <root>
        <mxCell id="0" />
        <mxCell id="1" parent="0" />
        <mxCell id="btSm2YpsYM-HiLgUKsl5-41" value="&lt;div&gt;&lt;font style=&quot;font-size: 49px;&quot;&gt;Smartphone Database&lt;/font&gt;&lt;/div&gt;&lt;div&gt;&lt;br&gt;&lt;/div&gt;&lt;div&gt;&lt;br&gt;&lt;/div&gt;&lt;div&gt;&lt;br&gt;&lt;/div&gt;&lt;div&gt;&lt;br&gt;&lt;/div&gt;&lt;div&gt;&lt;br&gt;&lt;/div&gt;&lt;div&gt;&lt;br&gt;&lt;/div&gt;&lt;div&gt;&lt;br&gt;&lt;/div&gt;&lt;div&gt;&lt;br&gt;&lt;/div&gt;&lt;div&gt;&lt;br&gt;&lt;/div&gt;&lt;div&gt;&lt;br&gt;&lt;/div&gt;&lt;div&gt;&lt;br&gt;&lt;/div&gt;&lt;div&gt;&lt;br&gt;&lt;/div&gt;&lt;div&gt;&lt;br&gt;&lt;/div&gt;&lt;div&gt;&lt;br&gt;&lt;/div&gt;&lt;div&gt;&lt;br&gt;&lt;/div&gt;&lt;div&gt;&lt;br&gt;&lt;/div&gt;&lt;div&gt;&lt;br&gt;&lt;/div&gt;&lt;div&gt;&lt;br&gt;&lt;/div&gt;&lt;div&gt;&lt;br&gt;&lt;/div&gt;&lt;div&gt;&lt;br&gt;&lt;/div&gt;&lt;div&gt;&lt;br&gt;&lt;/div&gt;&lt;div&gt;&lt;br&gt;&lt;/div&gt;&lt;div&gt;&lt;br&gt;&lt;/div&gt;&lt;div&gt;&lt;br&gt;&lt;/div&gt;&lt;div&gt;&lt;br&gt;&lt;/div&gt;&lt;div&gt;&lt;br&gt;&lt;/div&gt;&lt;div&gt;&lt;br&gt;&lt;/div&gt;&lt;div&gt;&lt;br&gt;&lt;/div&gt;&lt;div&gt;&lt;br&gt;&lt;/div&gt;&lt;div&gt;&lt;br&gt;&lt;/div&gt;&lt;div&gt;&lt;br&gt;&lt;/div&gt;&lt;div&gt;&lt;br&gt;&lt;/div&gt;&lt;div&gt;&lt;br&gt;&lt;/div&gt;&lt;div&gt;&lt;br&gt;&lt;/div&gt;&lt;div&gt;&lt;br&gt;&lt;/div&gt;&lt;div&gt;&lt;br&gt;&lt;/div&gt;&lt;div&gt;&lt;br&gt;&lt;/div&gt;&lt;div&gt;&lt;br&gt;&lt;/div&gt;&lt;div&gt;&lt;br&gt;&lt;/div&gt;&lt;div&gt;&lt;br&gt;&lt;/div&gt;&lt;div&gt;&lt;br&gt;&lt;/div&gt;&lt;div&gt;&lt;br&gt;&lt;/div&gt;&lt;div&gt;&lt;br&gt;&lt;/div&gt;&lt;div&gt;&lt;br&gt;&lt;/div&gt;&lt;div&gt;&lt;br&gt;&lt;/div&gt;&lt;div&gt;&lt;br&gt;&lt;/div&gt;&lt;div&gt;&lt;br&gt;&lt;/div&gt;&lt;div&gt;&lt;br&gt;&lt;/div&gt;&lt;div&gt;&lt;br&gt;&lt;/div&gt;&lt;div&gt;&lt;br&gt;&lt;/div&gt;&lt;div&gt;&lt;br&gt;&lt;/div&gt;&lt;div&gt;&lt;br&gt;&lt;/div&gt;&lt;div&gt;&lt;br&gt;&lt;/div&gt;&lt;div&gt;&lt;br&gt;&lt;/div&gt;" style="rounded=0;whiteSpace=wrap;html=1;fontSize=18;movable=0;resizable=0;rotatable=0;deletable=0;editable=0;locked=1;connectable=0;" vertex="1" parent="1">
          <mxGeometry x="-770" y="-470" width="2090" height="1935" as="geometry" />
        </mxCell>
        <mxCell id="btSm2YpsYM-HiLgUKsl5-1" value="&lt;div&gt;Ingredient&lt;/div&gt;" style="ellipse;whiteSpace=wrap;html=1;" vertex="1" parent="1">
          <mxGeometry x="120" y="270" width="120" height="80" as="geometry" />
        </mxCell>
        <mxCell id="btSm2YpsYM-HiLgUKsl5-2" value="Recipe" style="ellipse;whiteSpace=wrap;html=1;" vertex="1" parent="1">
          <mxGeometry x="540" y="275" width="120" height="80" as="geometry" />
        </mxCell>
        <mxCell id="btSm2YpsYM-HiLgUKsl5-4" value="" style="endArrow=none;html=1;rounded=0;" edge="1" parent="1" source="btSm2YpsYM-HiLgUKsl5-2" target="btSm2YpsYM-HiLgUKsl5-1">
          <mxGeometry width="50" height="50" relative="1" as="geometry">
            <mxPoint x="320" y="530" as="sourcePoint" />
            <mxPoint x="370" y="480" as="targetPoint" />
          </mxGeometry>
        </mxCell>
        <mxCell id="btSm2YpsYM-HiLgUKsl5-8" value="Name" style="rounded=1;whiteSpace=wrap;html=1;" vertex="1" parent="1">
          <mxGeometry x="500" y="130" width="70" height="40" as="geometry" />
        </mxCell>
        <mxCell id="btSm2YpsYM-HiLgUKsl5-10" value="Description" style="rounded=1;whiteSpace=wrap;html=1;" vertex="1" parent="1">
          <mxGeometry x="610" y="110" width="80" height="30" as="geometry" />
        </mxCell>
        <mxCell id="btSm2YpsYM-HiLgUKsl5-11" value="Steps" style="rounded=1;whiteSpace=wrap;html=1;" vertex="1" parent="1">
          <mxGeometry x="690" y="175" width="70" height="35" as="geometry" />
        </mxCell>
        <mxCell id="btSm2YpsYM-HiLgUKsl5-12" value="" style="endArrow=none;html=1;rounded=0;" edge="1" parent="1" source="btSm2YpsYM-HiLgUKsl5-8" target="btSm2YpsYM-HiLgUKsl5-2">
          <mxGeometry width="50" height="50" relative="1" as="geometry">
            <mxPoint x="370" y="230" as="sourcePoint" />
            <mxPoint x="420" y="180" as="targetPoint" />
          </mxGeometry>
        </mxCell>
        <mxCell id="btSm2YpsYM-HiLgUKsl5-14" value="" style="endArrow=none;html=1;rounded=0;" edge="1" parent="1" source="btSm2YpsYM-HiLgUKsl5-10" target="btSm2YpsYM-HiLgUKsl5-2">
          <mxGeometry width="50" height="50" relative="1" as="geometry">
            <mxPoint x="450" y="270" as="sourcePoint" />
            <mxPoint x="499" y="401" as="targetPoint" />
          </mxGeometry>
        </mxCell>
        <mxCell id="btSm2YpsYM-HiLgUKsl5-15" value="" style="endArrow=none;html=1;rounded=0;" edge="1" parent="1" source="btSm2YpsYM-HiLgUKsl5-11" target="btSm2YpsYM-HiLgUKsl5-2">
          <mxGeometry width="50" height="50" relative="1" as="geometry">
            <mxPoint x="588" y="340" as="sourcePoint" />
            <mxPoint x="560" y="470" as="targetPoint" />
          </mxGeometry>
        </mxCell>
        <mxCell id="btSm2YpsYM-HiLgUKsl5-16" value="Date" style="rounded=1;whiteSpace=wrap;html=1;" vertex="1" parent="1">
          <mxGeometry x="-5" y="110" width="70" height="40" as="geometry" />
        </mxCell>
        <mxCell id="btSm2YpsYM-HiLgUKsl5-17" value="&lt;div&gt;Fridge&lt;/div&gt;" style="ellipse;whiteSpace=wrap;html=1;" vertex="1" parent="1">
          <mxGeometry x="-190" y="275" width="120" height="80" as="geometry" />
        </mxCell>
        <mxCell id="btSm2YpsYM-HiLgUKsl5-18" value="M" style="text;html=1;align=center;verticalAlign=middle;whiteSpace=wrap;rounded=0;" vertex="1" parent="1">
          <mxGeometry x="230" y="280" width="60" height="30" as="geometry" />
        </mxCell>
        <mxCell id="btSm2YpsYM-HiLgUKsl5-19" value="M" style="text;html=1;align=center;verticalAlign=middle;whiteSpace=wrap;rounded=0;" vertex="1" parent="1">
          <mxGeometry x="480" y="280" width="60" height="30" as="geometry" />
        </mxCell>
        <mxCell id="btSm2YpsYM-HiLgUKsl5-22" value="" style="endArrow=none;html=1;rounded=0;" edge="1" parent="1" source="btSm2YpsYM-HiLgUKsl5-16" target="btSm2YpsYM-HiLgUKsl5-1">
          <mxGeometry width="50" height="50" relative="1" as="geometry">
            <mxPoint x="-40" y="350" as="sourcePoint" />
            <mxPoint x="10" y="300" as="targetPoint" />
          </mxGeometry>
        </mxCell>
        <mxCell id="btSm2YpsYM-HiLgUKsl5-23" value="name" style="rounded=1;whiteSpace=wrap;html=1;" vertex="1" parent="1">
          <mxGeometry x="75" y="60" width="70" height="40" as="geometry" />
        </mxCell>
        <mxCell id="btSm2YpsYM-HiLgUKsl5-24" value="" style="endArrow=none;html=1;rounded=0;" edge="1" parent="1" source="btSm2YpsYM-HiLgUKsl5-1" target="btSm2YpsYM-HiLgUKsl5-23">
          <mxGeometry width="50" height="50" relative="1" as="geometry">
            <mxPoint x="140" y="290" as="sourcePoint" />
            <mxPoint x="196" y="323" as="targetPoint" />
          </mxGeometry>
        </mxCell>
        <mxCell id="btSm2YpsYM-HiLgUKsl5-25" value="Amount" style="rounded=1;whiteSpace=wrap;html=1;" vertex="1" parent="1">
          <mxGeometry x="195" y="60" width="70" height="40" as="geometry" />
        </mxCell>
        <mxCell id="btSm2YpsYM-HiLgUKsl5-26" value="unit" style="rounded=1;whiteSpace=wrap;html=1;rotation=0;" vertex="1" parent="1">
          <mxGeometry x="300" y="110" width="70" height="40" as="geometry" />
        </mxCell>
        <mxCell id="btSm2YpsYM-HiLgUKsl5-27" value="" style="endArrow=none;html=1;rounded=0;" edge="1" parent="1" source="btSm2YpsYM-HiLgUKsl5-1" target="btSm2YpsYM-HiLgUKsl5-25">
          <mxGeometry width="50" height="50" relative="1" as="geometry">
            <mxPoint x="236" y="338" as="sourcePoint" />
            <mxPoint x="170" y="280" as="targetPoint" />
          </mxGeometry>
        </mxCell>
        <mxCell id="btSm2YpsYM-HiLgUKsl5-28" value="" style="endArrow=none;html=1;rounded=0;" edge="1" parent="1" source="btSm2YpsYM-HiLgUKsl5-1" target="btSm2YpsYM-HiLgUKsl5-26">
          <mxGeometry width="50" height="50" relative="1" as="geometry">
            <mxPoint x="218" y="351" as="sourcePoint" />
            <mxPoint x="200" y="290" as="targetPoint" />
          </mxGeometry>
        </mxCell>
        <mxCell id="btSm2YpsYM-HiLgUKsl5-38" value="&lt;div&gt;junction table:&lt;/div&gt;&lt;div&gt;id-Ing | id-Rec&lt;/div&gt;&lt;div&gt;&lt;span style=&quot;white-space: pre;&quot;&gt;1     |    3 &lt;/span&gt;&lt;/div&gt;&lt;div&gt;&lt;span style=&quot;white-space: pre;&quot;&gt;2     |    3&lt;/span&gt;&lt;/div&gt;&lt;div&gt;&lt;span style=&quot;white-space: pre;&quot;&gt;&#x9;&lt;/span&gt;&lt;/div&gt;" style="rounded=0;whiteSpace=wrap;html=1;" vertex="1" parent="1">
          <mxGeometry x="340" y="245" width="100" height="145" as="geometry" />
        </mxCell>
        <mxCell id="btSm2YpsYM-HiLgUKsl5-42" value="User" style="ellipse;whiteSpace=wrap;html=1;" vertex="1" parent="1">
          <mxGeometry x="195" y="680" width="120" height="80" as="geometry" />
        </mxCell>
        <mxCell id="btSm2YpsYM-HiLgUKsl5-43" value="" style="endArrow=none;html=1;rounded=0;" edge="1" parent="1" source="btSm2YpsYM-HiLgUKsl5-42" target="btSm2YpsYM-HiLgUKsl5-2">
          <mxGeometry width="50" height="50" relative="1" as="geometry">
            <mxPoint x="396" y="660" as="sourcePoint" />
            <mxPoint x="390" y="600" as="targetPoint" />
          </mxGeometry>
        </mxCell>
        <mxCell id="btSm2YpsYM-HiLgUKsl5-44" value="1" style="text;html=1;align=center;verticalAlign=middle;whiteSpace=wrap;rounded=0;" vertex="1" parent="1">
          <mxGeometry x="245" y="630" width="60" height="30" as="geometry" />
        </mxCell>
        <mxCell id="btSm2YpsYM-HiLgUKsl5-45" value="M&amp;nbsp;" style="text;html=1;align=center;verticalAlign=middle;whiteSpace=wrap;rounded=0;" vertex="1" parent="1">
          <mxGeometry x="540" y="355" width="60" height="30" as="geometry" />
        </mxCell>
        <mxCell id="btSm2YpsYM-HiLgUKsl5-46" value="Public" style="rounded=1;whiteSpace=wrap;html=1;" vertex="1" parent="1">
          <mxGeometry x="760" y="235" width="70" height="35" as="geometry" />
        </mxCell>
        <mxCell id="btSm2YpsYM-HiLgUKsl5-48" value="" style="endArrow=none;html=1;rounded=0;" edge="1" parent="1" source="btSm2YpsYM-HiLgUKsl5-2" target="btSm2YpsYM-HiLgUKsl5-46">
          <mxGeometry width="50" height="50" relative="1" as="geometry">
            <mxPoint x="620" y="642" as="sourcePoint" />
            <mxPoint x="716" y="610" as="targetPoint" />
          </mxGeometry>
        </mxCell>
        <mxCell id="btSm2YpsYM-HiLgUKsl5-50" value="" style="endArrow=none;html=1;rounded=0;" edge="1" parent="1" source="btSm2YpsYM-HiLgUKsl5-17" target="btSm2YpsYM-HiLgUKsl5-1">
          <mxGeometry width="50" height="50" relative="1" as="geometry">
            <mxPoint y="370" as="sourcePoint" />
            <mxPoint x="50" y="320" as="targetPoint" />
          </mxGeometry>
        </mxCell>
        <mxCell id="btSm2YpsYM-HiLgUKsl5-51" value="" style="endArrow=none;html=1;rounded=0;" edge="1" parent="1" source="btSm2YpsYM-HiLgUKsl5-42" target="btSm2YpsYM-HiLgUKsl5-17">
          <mxGeometry width="50" height="50" relative="1" as="geometry">
            <mxPoint x="-150" y="640" as="sourcePoint" />
            <mxPoint x="-100" y="590" as="targetPoint" />
          </mxGeometry>
        </mxCell>
        <mxCell id="btSm2YpsYM-HiLgUKsl5-53" value="1" style="text;html=1;align=center;verticalAlign=middle;whiteSpace=wrap;rounded=0;" vertex="1" parent="1">
          <mxGeometry x="145" y="670" width="60" height="30" as="geometry" />
        </mxCell>
        <mxCell id="btSm2YpsYM-HiLgUKsl5-54" value="1" style="text;html=1;align=center;verticalAlign=middle;whiteSpace=wrap;rounded=0;" vertex="1" parent="1">
          <mxGeometry x="-160" y="355" width="60" height="30" as="geometry" />
        </mxCell>
        <mxCell id="btSm2YpsYM-HiLgUKsl5-55" value="M" style="text;html=1;align=center;verticalAlign=middle;whiteSpace=wrap;rounded=0;" vertex="1" parent="1">
          <mxGeometry x="-80" y="280" width="60" height="30" as="geometry" />
        </mxCell>
        <mxCell id="btSm2YpsYM-HiLgUKsl5-56" value="M" style="text;html=1;align=center;verticalAlign=middle;whiteSpace=wrap;rounded=0;" vertex="1" parent="1">
          <mxGeometry x="70" y="280" width="60" height="30" as="geometry" />
        </mxCell>
        <mxCell id="btSm2YpsYM-HiLgUKsl5-57" value="name" style="rounded=1;whiteSpace=wrap;html=1;" vertex="1" parent="1">
          <mxGeometry x="20.000000000000014" y="700" width="70" height="40" as="geometry" />
        </mxCell>
        <mxCell id="btSm2YpsYM-HiLgUKsl5-59" value="" style="endArrow=none;html=1;rounded=0;" edge="1" parent="1" source="btSm2YpsYM-HiLgUKsl5-57" target="btSm2YpsYM-HiLgUKsl5-42">
          <mxGeometry width="50" height="50" relative="1" as="geometry">
            <mxPoint x="428.91999999999996" y="752" as="sourcePoint" />
            <mxPoint x="219.99842333830136" y="657.8657709359454" as="targetPoint" />
          </mxGeometry>
        </mxCell>
        <mxCell id="btSm2YpsYM-HiLgUKsl5-64" value="Author" style="rounded=1;whiteSpace=wrap;html=1;" vertex="1" parent="1">
          <mxGeometry x="770" y="297.5" width="70" height="35" as="geometry" />
        </mxCell>
        <mxCell id="btSm2YpsYM-HiLgUKsl5-65" value="" style="endArrow=none;html=1;rounded=0;" edge="1" parent="1" source="btSm2YpsYM-HiLgUKsl5-2" target="btSm2YpsYM-HiLgUKsl5-64">
          <mxGeometry width="50" height="50" relative="1" as="geometry">
            <mxPoint x="760" y="383" as="sourcePoint" />
            <mxPoint x="870" y="380" as="targetPoint" />
          </mxGeometry>
        </mxCell>
        <mxCell id="btSm2YpsYM-HiLgUKsl5-67" value="&lt;div&gt;junction table:&lt;/div&gt;&lt;div&gt;id-fridge | id-ing&lt;/div&gt;&lt;div&gt;&lt;span style=&quot;white-space: pre;&quot;&gt;1     |    3 &lt;/span&gt;&lt;/div&gt;&lt;div&gt;&lt;span style=&quot;white-space: pre;&quot;&gt;   2      |   3&lt;/span&gt;&lt;/div&gt;&lt;div&gt;&lt;span style=&quot;white-space: pre;&quot;&gt;&#x9;&lt;/span&gt;&lt;/div&gt;" style="rounded=0;whiteSpace=wrap;html=1;" vertex="1" parent="1">
          <mxGeometry x="-20" y="235" width="100" height="140" as="geometry" />
        </mxCell>
        <mxCell id="btSm2YpsYM-HiLgUKsl5-69" value="fridge" style="shape=table;startSize=30;container=1;collapsible=0;childLayout=tableLayout;strokeColor=default;fontSize=16;" vertex="1" parent="1">
          <mxGeometry x="-460" y="230" width="180" height="150" as="geometry" />
        </mxCell>
        <mxCell id="btSm2YpsYM-HiLgUKsl5-70" value="" style="shape=tableRow;horizontal=0;startSize=0;swimlaneHead=0;swimlaneBody=0;strokeColor=inherit;top=0;left=0;bottom=0;right=0;collapsible=0;dropTarget=0;fillColor=none;points=[[0,0.5],[1,0.5]];portConstraint=eastwest;fontSize=16;" vertex="1" parent="btSm2YpsYM-HiLgUKsl5-69">
          <mxGeometry y="30" width="180" height="40" as="geometry" />
        </mxCell>
        <mxCell id="btSm2YpsYM-HiLgUKsl5-71" value="id" style="shape=partialRectangle;html=1;whiteSpace=wrap;connectable=0;strokeColor=inherit;overflow=hidden;fillColor=none;top=0;left=0;bottom=0;right=0;pointerEvents=1;fontSize=16;" vertex="1" parent="btSm2YpsYM-HiLgUKsl5-70">
          <mxGeometry width="60" height="40" as="geometry">
            <mxRectangle width="60" height="40" as="alternateBounds" />
          </mxGeometry>
        </mxCell>
        <mxCell id="btSm2YpsYM-HiLgUKsl5-72" value="userid" style="shape=partialRectangle;html=1;whiteSpace=wrap;connectable=0;strokeColor=inherit;overflow=hidden;fillColor=none;top=0;left=0;bottom=0;right=0;pointerEvents=1;fontSize=16;" vertex="1" parent="btSm2YpsYM-HiLgUKsl5-70">
          <mxGeometry x="60" width="60" height="40" as="geometry">
            <mxRectangle width="60" height="40" as="alternateBounds" />
          </mxGeometry>
        </mxCell>
        <mxCell id="btSm2YpsYM-HiLgUKsl5-73" value="" style="shape=partialRectangle;html=1;whiteSpace=wrap;connectable=0;strokeColor=inherit;overflow=hidden;fillColor=none;top=0;left=0;bottom=0;right=0;pointerEvents=1;fontSize=16;" vertex="1" parent="btSm2YpsYM-HiLgUKsl5-70">
          <mxGeometry x="120" width="60" height="40" as="geometry">
            <mxRectangle width="60" height="40" as="alternateBounds" />
          </mxGeometry>
        </mxCell>
        <mxCell id="btSm2YpsYM-HiLgUKsl5-74" value="" style="shape=tableRow;horizontal=0;startSize=0;swimlaneHead=0;swimlaneBody=0;strokeColor=inherit;top=0;left=0;bottom=0;right=0;collapsible=0;dropTarget=0;fillColor=none;points=[[0,0.5],[1,0.5]];portConstraint=eastwest;fontSize=16;" vertex="1" parent="btSm2YpsYM-HiLgUKsl5-69">
          <mxGeometry y="70" width="180" height="40" as="geometry" />
        </mxCell>
        <mxCell id="btSm2YpsYM-HiLgUKsl5-75" value="1" style="shape=partialRectangle;html=1;whiteSpace=wrap;connectable=0;strokeColor=inherit;overflow=hidden;fillColor=none;top=0;left=0;bottom=0;right=0;pointerEvents=1;fontSize=16;" vertex="1" parent="btSm2YpsYM-HiLgUKsl5-74">
          <mxGeometry width="60" height="40" as="geometry">
            <mxRectangle width="60" height="40" as="alternateBounds" />
          </mxGeometry>
        </mxCell>
        <mxCell id="btSm2YpsYM-HiLgUKsl5-76" value="1" style="shape=partialRectangle;html=1;whiteSpace=wrap;connectable=0;strokeColor=inherit;overflow=hidden;fillColor=none;top=0;left=0;bottom=0;right=0;pointerEvents=1;fontSize=16;" vertex="1" parent="btSm2YpsYM-HiLgUKsl5-74">
          <mxGeometry x="60" width="60" height="40" as="geometry">
            <mxRectangle width="60" height="40" as="alternateBounds" />
          </mxGeometry>
        </mxCell>
        <mxCell id="btSm2YpsYM-HiLgUKsl5-77" value="" style="shape=partialRectangle;html=1;whiteSpace=wrap;connectable=0;strokeColor=inherit;overflow=hidden;fillColor=none;top=0;left=0;bottom=0;right=0;pointerEvents=1;fontSize=16;" vertex="1" parent="btSm2YpsYM-HiLgUKsl5-74">
          <mxGeometry x="120" width="60" height="40" as="geometry">
            <mxRectangle width="60" height="40" as="alternateBounds" />
          </mxGeometry>
        </mxCell>
        <mxCell id="btSm2YpsYM-HiLgUKsl5-78" value="" style="shape=tableRow;horizontal=0;startSize=0;swimlaneHead=0;swimlaneBody=0;strokeColor=inherit;top=0;left=0;bottom=0;right=0;collapsible=0;dropTarget=0;fillColor=none;points=[[0,0.5],[1,0.5]];portConstraint=eastwest;fontSize=16;" vertex="1" parent="btSm2YpsYM-HiLgUKsl5-69">
          <mxGeometry y="110" width="180" height="40" as="geometry" />
        </mxCell>
        <mxCell id="btSm2YpsYM-HiLgUKsl5-79" value="2" style="shape=partialRectangle;html=1;whiteSpace=wrap;connectable=0;strokeColor=inherit;overflow=hidden;fillColor=none;top=0;left=0;bottom=0;right=0;pointerEvents=1;fontSize=16;" vertex="1" parent="btSm2YpsYM-HiLgUKsl5-78">
          <mxGeometry width="60" height="40" as="geometry">
            <mxRectangle width="60" height="40" as="alternateBounds" />
          </mxGeometry>
        </mxCell>
        <mxCell id="btSm2YpsYM-HiLgUKsl5-80" value="2" style="shape=partialRectangle;html=1;whiteSpace=wrap;connectable=0;strokeColor=inherit;overflow=hidden;fillColor=none;top=0;left=0;bottom=0;right=0;pointerEvents=1;fontSize=16;" vertex="1" parent="btSm2YpsYM-HiLgUKsl5-78">
          <mxGeometry x="60" width="60" height="40" as="geometry">
            <mxRectangle width="60" height="40" as="alternateBounds" />
          </mxGeometry>
        </mxCell>
        <mxCell id="btSm2YpsYM-HiLgUKsl5-81" value="" style="shape=partialRectangle;html=1;whiteSpace=wrap;connectable=0;strokeColor=inherit;overflow=hidden;fillColor=none;top=0;left=0;bottom=0;right=0;pointerEvents=1;fontSize=16;" vertex="1" parent="btSm2YpsYM-HiLgUKsl5-78">
          <mxGeometry x="120" width="60" height="40" as="geometry">
            <mxRectangle width="60" height="40" as="alternateBounds" />
          </mxGeometry>
        </mxCell>
        <mxCell id="btSm2YpsYM-HiLgUKsl5-95" value="Frozen" style="rounded=1;whiteSpace=wrap;html=1;" vertex="1" parent="1">
          <mxGeometry x="170" y="430" width="70" height="40" as="geometry" />
        </mxCell>
        <mxCell id="btSm2YpsYM-HiLgUKsl5-97" value="" style="endArrow=none;html=1;rounded=0;" edge="1" parent="1" source="btSm2YpsYM-HiLgUKsl5-95" target="btSm2YpsYM-HiLgUKsl5-1">
          <mxGeometry width="50" height="50" relative="1" as="geometry">
            <mxPoint x="220" y="460" as="sourcePoint" />
            <mxPoint x="257" y="290" as="targetPoint" />
          </mxGeometry>
        </mxCell>
        <mxCell id="btSm2YpsYM-HiLgUKsl5-98" value="Tags" style="ellipse;whiteSpace=wrap;html=1;" vertex="1" parent="1">
          <mxGeometry x="540" y="580" width="120" height="80" as="geometry" />
        </mxCell>
        <mxCell id="btSm2YpsYM-HiLgUKsl5-99" value="" style="endArrow=none;html=1;rounded=0;" edge="1" parent="1" source="btSm2YpsYM-HiLgUKsl5-98" target="btSm2YpsYM-HiLgUKsl5-2">
          <mxGeometry width="50" height="50" relative="1" as="geometry">
            <mxPoint x="680" y="550" as="sourcePoint" />
            <mxPoint x="730" y="500" as="targetPoint" />
          </mxGeometry>
        </mxCell>
        <mxCell id="btSm2YpsYM-HiLgUKsl5-100" value="" style="endArrow=none;html=1;rounded=0;" edge="1" parent="1" source="btSm2YpsYM-HiLgUKsl5-42" target="btSm2YpsYM-HiLgUKsl5-98">
          <mxGeometry width="50" height="50" relative="1" as="geometry">
            <mxPoint x="650" y="865" as="sourcePoint" />
            <mxPoint x="650" y="640" as="targetPoint" />
          </mxGeometry>
        </mxCell>
        <mxCell id="btSm2YpsYM-HiLgUKsl5-101" value="M&amp;nbsp;" style="text;html=1;align=center;verticalAlign=middle;whiteSpace=wrap;rounded=0;" vertex="1" parent="1">
          <mxGeometry x="590" y="360" width="60" height="30" as="geometry" />
        </mxCell>
        <mxCell id="btSm2YpsYM-HiLgUKsl5-102" value="M&amp;nbsp;" style="text;html=1;align=center;verticalAlign=middle;whiteSpace=wrap;rounded=0;" vertex="1" parent="1">
          <mxGeometry x="590" y="550" width="60" height="30" as="geometry" />
        </mxCell>
        <mxCell id="btSm2YpsYM-HiLgUKsl5-103" value="M" style="text;html=1;align=center;verticalAlign=middle;whiteSpace=wrap;rounded=0;" vertex="1" parent="1">
          <mxGeometry x="310" y="700" width="60" height="30" as="geometry" />
        </mxCell>
        <mxCell id="btSm2YpsYM-HiLgUKsl5-104" value="M" style="text;html=1;align=center;verticalAlign=middle;whiteSpace=wrap;rounded=0;" vertex="1" parent="1">
          <mxGeometry x="520" y="650" width="60" height="30" as="geometry" />
        </mxCell>
        <mxCell id="btSm2YpsYM-HiLgUKsl5-106" value="&lt;div&gt;junction table:&lt;/div&gt;&lt;div&gt;id-Ing | id-Rec&lt;/div&gt;&lt;div&gt;&lt;span style=&quot;white-space: pre;&quot;&gt;1     |    3 &lt;/span&gt;&lt;/div&gt;&lt;div&gt;&lt;span style=&quot;white-space: pre;&quot;&gt;2     |    3&lt;/span&gt;&lt;/div&gt;&lt;div&gt;&lt;span style=&quot;white-space: pre;&quot;&gt;&#x9;&lt;/span&gt;&lt;/div&gt;" style="rounded=0;whiteSpace=wrap;html=1;" vertex="1" parent="1">
          <mxGeometry x="560" y="390" width="90" height="135" as="geometry" />
        </mxCell>
        <mxCell id="btSm2YpsYM-HiLgUKsl5-107" value="&lt;div&gt;junction table:&lt;/div&gt;&lt;div&gt;id-Ing | id-Rec&lt;/div&gt;&lt;div&gt;&lt;span style=&quot;white-space: pre;&quot;&gt;1     |    3 &lt;/span&gt;&lt;/div&gt;&lt;div&gt;&lt;span style=&quot;white-space: pre;&quot;&gt;2     |    3&lt;/span&gt;&lt;/div&gt;&lt;div&gt;&lt;span style=&quot;white-space: pre;&quot;&gt;&#x9;&lt;/span&gt;&lt;/div&gt;" style="rounded=0;whiteSpace=wrap;html=1;" vertex="1" parent="1">
          <mxGeometry x="390" y="610" width="100" height="140" as="geometry" />
        </mxCell>
      </root>
    </mxGraphModel>
  </diagram>
</mxfile>
